# xmcd
#
# Track frame offsets:
#	150
#	11875
#	23800
#	38397
#	50060
#	63802
#	77615
#	88262
#	103357
#	115932
#	127882
#	139072
#	148067
#	161612
#	172422
#	179355
#	189287
#	201040
#	210175
#	221095
#
# Disc length: 3102 seconds
# Revision: 3
# Processed by: cddbd v1.5.2PL0 Copyright (c) Steve Scherf et al.
# Submitted via: dBpowerAMP V12.0
#
DISCID=1e0c1c14
DTITLE=Willie Nelson - Allegiance Xtra - The Legend Begins/Wild and Willie [Takoma/Allegiance CDP 72922]
DYEAR=1987
DGENRE=Country
TTITLE0=Some Other Time [The Legend Begins, TAK 7104]
TTITLE1=I Hope So
TTITLE2=Will You Remember Me
TTITLE3=Is There Something On Your Mind
TTITLE4=Everything But You
TTITLE5=A Moment Isn't Very Long
TTITLE6=Blame It On The Times
TTITLE7=Face Of A Fighter
TTITLE8=Shelter Of My Arms
TTITLE9=End Of Understanding
TTITLE10=I'm Going To Lose A Lot Of Teardrops [Wild and Willie, AV 5010]
TTITLE11=Waiting Time
TTITLE12=No Tomorrow In Sight
TTITLE13=A New Way To Cry
TTITLE14=Both Ends Of The Candle
TTITLE15=Broken Promises
TTITLE16=Happiness Lives Next Door
TTITLE17=Right From Wrong
TTITLE18=Go Away
TTITLE19=I'll Stay Around
EXTD=
EXTT0=
EXTT1=
EXTT2=
EXTT3=
EXTT4=
EXTT5=
EXTT6=
EXTT7=
EXTT8=
EXTT9=
EXTT10=
EXTT11=
EXTT12=
EXTT13=
EXTT14=
EXTT15=
EXTT16=
EXTT17=
EXTT18=
EXTT19=
PLAYORDER=
